<svg width="64" height="64" viewBox="0 0 64 64" fill="none" xmlns="http://www.w3.org/2000/svg">
<path d="M53.1394 10.8606C50.3683 8.06211 47.0715 5.83869 43.4385 4.31812C39.8055 2.79755 35.9079 2.00978 31.9695 2.00009C28.0312 1.9904 24.1297 2.75896 20.4893 4.26163C16.8488 5.76431 13.5412 7.97147 10.7563 10.7563C7.97147 13.5412 5.76431 16.8488 4.26163 20.4893C2.75896 24.1297 1.9904 28.0312 2.00009 31.9695C2.00978 35.9079 2.79755 39.8055 4.31812 43.4385C5.83869 47.0715 8.06211 50.3683 10.8606 53.1394C13.6317 55.9379 16.9285 58.1613 20.5615 59.6819C24.1945 61.2025 28.0921 61.9902 32.0305 61.9999C35.9688 62.0096 39.8703 61.241 43.5107 59.7384C47.1512 58.2357 50.4588 56.0285 53.2437 53.2437C56.0285 50.4588 58.2357 47.1512 59.7384 43.5107C61.241 39.8703 62.0096 35.9688 61.9999 32.0305C61.9902 28.0921 61.2025 24.1945 59.6819 20.5615C58.1613 16.9285 55.9379 13.6317 53.1394 10.8606ZM6.37491 32C6.37395 29.7321 6.67466 27.4741 7.26912 25.2854C8.24874 27.3942 9.67147 29.2159 10.6391 31.3794C11.8896 34.1608 15.2476 33.3894 16.7304 35.8264C18.0463 37.9899 16.641 40.7259 17.6259 42.9894C18.3413 44.6324 20.0283 44.9914 21.1921 46.1926C22.3812 47.4044 22.3559 49.0647 22.5374 50.6449C22.7422 52.5016 23.0744 54.3419 23.5317 56.153C23.5317 56.1663 23.5317 56.181 23.5424 56.1944C13.5553 52.6869 6.37491 43.1669 6.37491 32ZM32 57.6251C30.5689 57.6246 29.1404 57.505 27.7292 57.2674C27.7438 56.9057 27.7505 56.5681 27.7865 56.3332C28.1109 54.2111 29.1732 52.1357 30.6066 50.5475C32.0227 48.9806 33.9633 47.9209 35.1591 46.1432C36.3309 44.4082 36.6819 42.0725 36.1988 40.0452C35.4874 37.0503 31.4181 36.0506 29.2239 34.4264C27.9627 33.4921 26.8403 32.048 25.184 31.9306C24.4206 31.8772 23.7813 32.0414 23.0245 31.8465C22.3305 31.6663 21.786 31.2926 21.0466 31.3901C19.6653 31.5716 18.7937 33.0477 17.3096 32.8475C15.9016 32.6593 14.4508 31.011 14.1305 29.6697C13.7194 27.9454 15.0834 27.3861 16.5449 27.2327C17.1548 27.1686 17.8395 27.0992 18.4254 27.3234C19.1968 27.609 19.5612 28.3644 20.2538 28.7461C21.5524 29.4588 21.8154 28.3204 21.6165 27.1673C21.3189 25.4402 20.9719 24.7369 22.512 23.5477C23.5798 22.7283 24.4926 22.1357 24.3218 20.6636C24.2204 19.7987 23.7466 19.4077 24.1884 18.5468C24.5233 17.8915 25.4429 17.3003 26.0422 16.9092C27.589 15.9002 32.6687 15.975 30.5933 13.1509C29.9834 12.3221 28.8583 10.8406 27.7905 10.6377C26.4559 10.3855 25.8633 11.875 24.9331 12.5316C23.9721 13.2109 22.101 13.9824 21.1387 12.932C19.8441 11.5186 21.9969 11.0555 22.4733 10.0679C22.6936 9.60741 22.4733 8.96811 22.1023 8.36619C22.5837 8.16333 23.073 7.97514 23.5704 7.80164C23.8821 8.03186 24.2519 8.17053 24.6381 8.20203C25.531 8.26075 26.3732 7.77761 27.1526 8.38621C28.0174 9.05353 28.6407 9.89702 29.7885 10.1052C30.8989 10.3068 32.0747 9.65946 32.3497 8.52234C32.5165 7.831 32.3497 7.10095 32.1895 6.38692C37.1811 6.41564 42.0542 7.91052 46.2032 10.6858C45.9363 10.5844 45.6173 10.5964 45.2236 10.7792C44.4135 11.1556 43.2657 12.1139 43.1709 13.0641C43.0628 14.1425 44.6537 14.2947 45.4091 14.2947C46.5436 14.2947 47.6927 13.7875 47.327 12.4769C47.1682 11.9083 46.952 11.3171 46.6036 10.9594C47.441 11.5404 48.2432 12.1706 49.006 12.8466C48.994 12.8586 48.982 12.8693 48.97 12.8826C48.2012 13.6834 47.3083 14.3174 46.7825 15.2916C46.4114 15.9776 45.9937 16.3033 45.2423 16.4808C44.8286 16.5782 44.3561 16.6143 44.0091 16.8919C43.0428 17.6526 43.5927 19.4811 44.5083 20.0296C45.6654 20.7223 47.3817 20.3966 48.2546 19.4077C48.9366 18.6336 49.3383 17.2896 50.5648 17.2909C51.1048 17.2898 51.6236 17.5012 52.0089 17.8795C52.5161 18.4054 52.416 18.8965 52.5241 19.5531C52.715 20.7196 53.744 20.087 54.3699 19.4984C54.8262 20.3104 55.2379 21.1467 55.6031 22.0035C54.9144 22.9952 54.3672 24.0762 52.7109 22.9204C51.7193 22.2278 51.1094 21.2228 49.8642 20.9105C48.7764 20.6435 47.662 20.9212 46.5876 21.1067C45.3664 21.3189 43.9183 21.4123 42.9921 22.3372C42.0966 23.2287 41.6228 24.4219 40.6698 25.3175C38.8267 27.0525 38.0486 28.9463 39.2418 31.3994C40.3896 33.7577 42.7906 35.0376 45.3811 34.8695C47.9263 34.7 50.5702 33.2239 50.4968 36.9222C50.4701 38.2314 50.7437 39.1377 51.1454 40.3535C51.5178 41.4746 51.4924 42.561 51.5778 43.7181C51.659 45.0731 51.8709 46.4171 52.2105 47.7314C49.8182 50.8115 46.7537 53.304 43.251 55.0187C39.7482 56.7334 35.8999 57.6249 32 57.6251Z" fill="#121212"/>
</svg>
