<svg width="64" height="64" viewBox="0 0 64 64" fill="none" xmlns="http://www.w3.org/2000/svg">
<path d="M41.9996 32C39.4297 32 36.9447 30.8525 34.9997 28.77C33.1084 26.7388 31.9534 24.03 31.7497 21.1451C31.5322 18.0676 32.4709 15.2376 34.3922 13.1751C36.3134 11.1126 38.9997 10.0001 41.9996 10.0001C44.9784 10.0001 47.6721 11.1326 49.5871 13.1901C51.5208 15.2676 52.4621 18.0926 52.2446 21.1438C52.0358 24.0325 50.8821 26.74 48.9946 28.7688C47.0546 30.8525 44.5709 32 41.9996 32Z" fill="#121212"/>
<path d="M58.4783 53.9999H25.5222C24.9924 54.0027 24.4689 53.884 23.9922 53.6527C23.5154 53.4215 23.0981 53.084 22.7722 52.6661C22.4266 52.2132 22.188 51.6879 22.0741 51.1296C21.9602 50.5714 21.9741 49.9946 22.1148 49.4424C23.1672 45.2162 25.7747 41.7112 29.6547 39.3075C33.0984 37.175 37.4822 36 41.9996 36C46.6059 36 50.8746 37.125 54.3383 39.2562C58.2271 41.6475 60.8383 45.1724 61.8858 49.4499C62.0247 50.0025 62.0371 50.5792 61.9219 51.1372C61.8068 51.6952 61.5671 52.22 61.2208 52.6724C60.8953 53.0883 60.4789 53.4242 60.0035 53.6543C59.5282 53.8844 59.0064 54.0026 58.4783 53.9999Z" fill="#121212"/>
<path d="M18.3748 32.5C13.976 32.5 10.1086 28.41 9.74982 23.3838C9.57232 20.8088 10.3748 18.4276 11.9998 16.6813C13.6073 14.9526 15.8748 14.0001 18.3748 14.0001C20.8748 14.0001 23.1247 14.9576 24.741 16.6963C26.3785 18.4563 27.1785 20.8326 26.991 23.3863C26.6322 28.4113 22.766 32.5 18.3748 32.5Z" fill="#121212"/>
<path d="M26.5822 36.4312C24.3835 35.3562 21.5298 34.8187 18.376 34.8187C14.6935 34.8187 11.1173 35.7787 8.30482 37.5212C5.11609 39.5 2.9711 42.3812 2.10486 45.8599C1.97809 46.3603 1.9661 46.8829 2.06978 47.3885C2.17347 47.8942 2.39014 48.3698 2.7036 48.7799C3.00104 49.1617 3.38208 49.4703 3.81743 49.6818C4.25278 49.8933 4.73084 50.0021 5.21484 49.9999H19.0898C19.324 49.9999 19.5507 49.9177 19.7305 49.7676C19.9102 49.6175 20.0317 49.4091 20.0735 49.1787C20.0873 49.0999 20.1048 49.0212 20.1248 48.9437C21.1848 44.6862 23.6685 41.0887 27.3385 38.4662C27.4735 38.3689 27.582 38.2395 27.6543 38.0896C27.7267 37.9398 27.7604 37.7742 27.7526 37.608C27.7448 37.4418 27.6956 37.2802 27.6096 37.1378C27.5235 36.9954 27.4032 36.8767 27.2597 36.7925C27.0635 36.6775 26.8385 36.5562 26.5822 36.4312Z" fill="#121212"/>
</svg>
