<svg width="64" height="64" viewBox="0 0 64 64" fill="none" xmlns="http://www.w3.org/2000/svg">
<path fill-rule="evenodd" clip-rule="evenodd" d="M51.1374 9.599C52.0387 8.69779 53.4998 8.69779 54.401 9.599L61.3241 16.5221C62.2253 17.4233 62.2253 18.8844 61.3241 19.7857L54.401 26.7087C53.4998 27.6099 52.0387 27.6099 51.1374 26.7087C50.2362 25.8075 50.2362 24.3464 51.1374 23.4452L54.121 20.4616H47.4053C45.8858 20.4616 44.3898 20.8367 43.05 21.5537C41.7103 22.2707 40.5683 23.3073 39.7253 24.5716L38.5357 26.3567C37.829 27.4172 36.3962 27.7041 35.3357 26.9973C34.2751 26.2905 33.9883 24.8578 34.695 23.7972L35.8853 22.0112C37.1497 20.1148 38.8627 18.5598 40.8723 17.4844C42.8819 16.4089 45.126 15.8462 47.4053 15.8462H54.121L51.1374 12.8626C50.2362 11.9614 50.2362 10.5002 51.1374 9.599ZM2 18.1539C2 16.8794 3.03319 15.8462 4.30769 15.8462H16.5947C18.874 15.8462 21.1181 16.4089 23.1277 17.4844C25.1373 18.5598 26.8503 20.1148 28.1147 22.0112L33.8905 30.6755C33.9106 30.7043 33.9301 30.7334 33.9488 30.763L39.7253 39.4285C40.5683 40.6928 41.7103 41.7294 43.05 42.4463C44.3898 43.1633 45.8858 43.5385 47.4053 43.5385H54.121L51.1374 40.5549C50.2362 39.6537 50.2362 38.1925 51.1374 37.2913C52.0387 36.3901 53.4998 36.3901 54.401 37.2913L61.3241 44.2144C62.2253 45.1156 62.2253 46.5768 61.3241 47.478L54.401 54.401C53.4998 55.3022 52.0387 55.3022 51.1374 54.401C50.2362 53.4998 50.2362 52.0387 51.1374 51.1375L54.121 48.1539H47.4052C45.126 48.1538 42.8819 47.5911 40.8723 46.5157C38.8627 45.4402 37.1497 43.8853 35.8853 41.9889L35.8851 41.9887L32 36.1605L28.1149 41.9887L28.1147 41.9889C26.8503 43.8853 25.1373 45.4402 23.1277 46.5157C21.1181 47.5911 18.874 48.1538 16.5947 48.1539H4.30769C3.03319 48.1539 2 47.1207 2 45.8462C2 44.5717 3.03319 43.5385 4.30769 43.5385H16.5947C18.1142 43.5385 19.6102 43.1633 20.95 42.4463C22.2897 41.7294 23.4317 40.6928 24.2747 39.4285L29.2266 32L24.2747 24.5716C24.2746 24.5715 24.2746 24.5714 24.2745 24.5714C23.4316 23.3072 22.2896 22.2706 20.95 21.5537C19.6102 20.8367 18.1142 20.4616 16.5947 20.4616C16.5947 20.4616 16.5947 20.4616 16.5947 20.4616H4.30769C3.03319 20.4616 2 19.4284 2 18.1539Z" fill="#121212"/>
</svg>
